<?xml version="1.0" encoding="UTF-8" standalone="no"?><svg xmlns="http://www.w3.org/2000/svg" xmlns:xlink="http://www.w3.org/1999/xlink" contentScriptType="application/ecmascript" contentStyleType="text/css" height="528px" preserveAspectRatio="none" style="width:1389px;height:528px;" version="1.1" viewBox="0 0 1389 528" width="1389px" zoomAndPan="magnify"><defs><filter height="300%" id="f1xmpouy2p278h" width="300%" x="-1" y="-1"><feGaussianBlur result="blurOut" stdDeviation="2.0"/><feColorMatrix in="blurOut" result="blurOut2" type="matrix" values="0 0 0 0 0 0 0 0 0 0 0 0 0 0 0 0 0 0 .4 0"/><feOffset dx="4.0" dy="4.0" in="blurOut2" result="blurOut3"/><feBlend in="SourceGraphic" in2="blurOut3" mode="normal"/></filter></defs><g><!--MD5=[bbdbef8946cc09792e5d983b4d972061]
cluster UC--><rect fill="#FFFFFF" filter="url(#f1xmpouy2p278h)" height="415" style="stroke:#000000;stroke-width:1.5;" width="1370" x="7" y="101.5"/><text fill="#000000" font-family="sans-serif" font-size="14" font-weight="bold" lengthAdjust="spacing" textLength="73" x="655.5" y="117.0352">Use Cases</text><!--MD5=[09c7fee59aeaa7f351d3f41315b9ec07]
cluster P1--><polygon fill="#FFFFFF" filter="url(#f1xmpouy2p278h)" points="39,164.5,175,164.5,182,186.9883,281,186.9883,281,480,39,480,39,164.5" style="stroke:#000000;stroke-width:1.5;"/><line style="stroke:#000000;stroke-width:1.5;" x1="39" x2="182" y1="186.9883" y2="186.9883"/><text fill="#000000" font-family="sans-serif" font-size="14" font-weight="bold" lengthAdjust="spacing" textLength="130" x="43" y="180.0352">User management</text><!--MD5=[c21fdba60f12d94b2fa6e6bbd805160f]
cluster P2--><polygon fill="#FFFFFF" filter="url(#f1xmpouy2p278h)" points="554,152.5,748,152.5,755,174.9883,879,174.9883,879,481.5,554,481.5,554,152.5" style="stroke:#000000;stroke-width:1.5;"/><line style="stroke:#000000;stroke-width:1.5;" x1="554" x2="755" y1="174.9883" y2="174.9883"/><text fill="#000000" font-family="sans-serif" font-size="14" font-weight="bold" lengthAdjust="spacing" textLength="188" x="558" y="168.0352">Competition management</text><!--MD5=[c6ffcf4d3b405419d09df7141ae36a57]
cluster P3--><polygon fill="#FFFFFF" filter="url(#f1xmpouy2p278h)" points="1074,157.5,1275,157.5,1282,179.9883,1345,179.9883,1345,484.5,1074,484.5,1074,157.5" style="stroke:#000000;stroke-width:1.5;"/><line style="stroke:#000000;stroke-width:1.5;" x1="1074" x2="1282" y1="179.9883" y2="179.9883"/><text fill="#000000" font-family="sans-serif" font-size="14" font-weight="bold" lengthAdjust="spacing" textLength="195" x="1078" y="173.0352">Memebership management</text><ellipse cx="416.1626" cy="223.6325" fill="#FEFECE" filter="url(#f1xmpouy2p278h)" rx="111.1626" ry="24.6325" style="stroke:#A80036;stroke-width:1.5;"/><text fill="#000000" font-family="sans-serif" font-size="14" lengthAdjust="spacing" textLength="188" x="322.1626" y="226.9235">Manage training disciplines</text><ellipse cx="975.1429" cy="223.3286" fill="#FEFECE" filter="url(#f1xmpouy2p278h)" rx="72.1429" ry="16.8286" style="stroke:#A80036;stroke-width:1.5;"/><text fill="#000000" font-family="sans-serif" font-size="14" lengthAdjust="spacing" textLength="99" x="924.9529" y="226.8054">Manage teams</text><ellipse cx="163.8317" cy="223.5663" fill="#FEFECE" filter="url(#f1xmpouy2p278h)" rx="68.3317" ry="16.0663" style="stroke:#A80036;stroke-width:1.5;"/><text fill="#000000" font-family="sans-serif" font-size="14" lengthAdjust="spacing" textLength="89" x="116.5877" y="227.5297">Add member</text><ellipse cx="163.9953" cy="333.4991" fill="#FEFECE" filter="url(#f1xmpouy2p278h)" rx="92.9953" ry="20.9991" style="stroke:#A80036;stroke-width:1.5;"/><text fill="#000000" font-family="sans-serif" font-size="14" lengthAdjust="spacing" textLength="148" x="89.9953" y="336.7901">Change member data</text><ellipse cx="164.206" cy="438.1412" fill="#FEFECE" filter="url(#f1xmpouy2p278h)" rx="78.706" ry="18.1412" style="stroke:#A80036;stroke-width:1.5;"/><text fill="#000000" font-family="sans-serif" font-size="14" lengthAdjust="spacing" textLength="115" x="106.706" y="441.4322">Remove member</text><ellipse cx="725.9371" cy="223.6874" fill="#FEFECE" filter="url(#f1xmpouy2p278h)" rx="128.9371" ry="28.1874" style="stroke:#A80036;stroke-width:1.5;"/><text fill="#000000" font-family="sans-serif" font-size="14" lengthAdjust="spacing" textLength="226" x="612.9371" y="226.9784">Manage training group members</text><ellipse cx="726.0181" cy="333.3036" fill="#FEFECE" filter="url(#f1xmpouy2p278h)" rx="97.0181" ry="21.8036" style="stroke:#A80036;stroke-width:1.5;"/><text fill="#000000" font-family="sans-serif" font-size="14" lengthAdjust="spacing" textLength="157" x="647.5181" y="336.5946">Add competition result</text><ellipse cx="725.9647" cy="438.0929" fill="#FEFECE" filter="url(#f1xmpouy2p278h)" rx="85.9647" ry="19.5929" style="stroke:#A80036;stroke-width:1.5;"/><text fill="#000000" font-family="sans-serif" font-size="14" lengthAdjust="spacing" textLength="132" x="659.9647" y="441.384">View top swimmers</text><ellipse cx="1218.9906" cy="223.2981" fill="#FEFECE" filter="url(#f1xmpouy2p278h)" rx="101.9906" ry="22.7981" style="stroke:#A80036;stroke-width:1.5;"/><text fill="#000000" font-family="sans-serif" font-size="14" lengthAdjust="spacing" textLength="168" x="1134.9906" y="226.5891">Change membership fee</text><ellipse cx="1219.1434" cy="333.5287" fill="#FEFECE" filter="url(#f1xmpouy2p278h)" rx="88.1434" ry="20.0287" style="stroke:#A80036;stroke-width:1.5;"/><text fill="#000000" font-family="sans-serif" font-size="14" lengthAdjust="spacing" textLength="137" x="1150.6434" y="336.8197">View annual income</text><ellipse cx="1218.7712" cy="437.7542" fill="#FEFECE" filter="url(#f1xmpouy2p278h)" rx="99.2712" ry="22.2542" style="stroke:#A80036;stroke-width:1.5;"/><text fill="#000000" font-family="sans-serif" font-size="14" lengthAdjust="spacing" textLength="162" x="1137.7712" y="441.0453">View overdue payments</text><!--MD5=[8f89c3b771be60a8fe1c771d5b27a045]
entity f--><ellipse cx="232" cy="14" fill="#FEFECE" filter="url(#f1xmpouy2p278h)" rx="8" ry="8" style="stroke:#A80036;stroke-width:1.5;"/><path d="M232,22 L232,49 M219,30 L245,30 M232,49 L219,64 M232,49 L245,64 " fill="none" filter="url(#f1xmpouy2p278h)" style="stroke:#A80036;stroke-width:1.5;"/><text fill="#000000" font-family="sans-serif" font-size="14" lengthAdjust="spacing" textLength="62" x="201" y="83.0352">Formand</text><!--MD5=[4b52362e67c82d91eba5cb75921775cc]
entity t--><ellipse cx="562" cy="14" fill="#FEFECE" filter="url(#f1xmpouy2p278h)" rx="8" ry="8" style="stroke:#A80036;stroke-width:1.5;"/><path d="M562,22 L562,49 M549,30 L575,30 M562,49 L549,64 M562,49 L575,64 " fill="none" filter="url(#f1xmpouy2p278h)" style="stroke:#A80036;stroke-width:1.5;"/><text fill="#000000" font-family="sans-serif" font-size="14" lengthAdjust="spacing" textLength="50" x="537" y="83.0352">Træner</text><!--MD5=[6ba0b1c295db7b1d68f6c74b783ca1ef]
entity k--><ellipse cx="1028" cy="14" fill="#FEFECE" filter="url(#f1xmpouy2p278h)" rx="8" ry="8" style="stroke:#A80036;stroke-width:1.5;"/><path d="M1028,22 L1028,49 M1015,30 L1041,30 M1028,49 L1015,64 M1028,49 L1041,64 " fill="none" filter="url(#f1xmpouy2p278h)" style="stroke:#A80036;stroke-width:1.5;"/><text fill="#000000" font-family="sans-serif" font-size="14" lengthAdjust="spacing" textLength="59" x="998.5" y="83.0352">Kasserer</text><!--MD5=[691758438edd82483f5bc345e9ff9f38]
link f to P1--><path d="M200.76,54.38 C149.95,68.02 55,93.5 55,93.5 C55,93.5 53.0625,124.75 51.095,156.4888 C50.972,158.4724 50.8489,160.458 50.7262,162.438 C50.6955,162.933 50.6649,163.4276 50.6342,163.9218 " fill="none" id="f-to-P1" style="stroke:#A80036;stroke-width:1.0;"/><polygon fill="#A80036" points="50.6342,163.9218,55.1834,155.1865,50.9436,158.9314,47.1987,154.6916,50.6342,163.9218" style="stroke:#A80036;stroke-width:1.0;"/><!--MD5=[ca4f5e927c5788452a09e8a6811bac35]
link f to UC4--><path d="M263.21,75.94 C298.19,109.49 354.38,163.4 388,195.64 " fill="none" id="f-to-UC4" style="stroke:#A80036;stroke-width:1.0;"/><polygon fill="#A80036" points="391.98,199.46,388.2411,190.3484,388.3668,196.0039,382.7113,196.1296,391.98,199.46" style="stroke:#A80036;stroke-width:1.0;"/><!--MD5=[b96a7ad54660ec9e1f2289f314b59d7f]
link t to UC4--><path d="M536.9,76.34 C509.28,109.73 465.28,162.93 438.67,195.1 " fill="none" id="t-to-UC4" style="stroke:#A80036;stroke-width:1.0;"/><polygon fill="#A80036" points="435.19,199.3,444.023,194.9435,438.3895,195.4577,437.8753,189.8243,435.19,199.3" style="stroke:#A80036;stroke-width:1.0;"/><!--MD5=[036b11303d2d199d7ce638857bd80054]
link t to P2--><path d="M562,85.61 C562,98.4175 562,113.2119 562,128.2395 C562,135.7534 562,143.3255 562,150.7368 C562,151.2 562,151.6626 562,152.1245 " fill="none" id="t-to-P2" style="stroke:#A80036;stroke-width:1.0;"/><polygon fill="#A80036" points="562,152.1245,566,143.1245,562,147.1245,558,143.1245,562,152.1245" style="stroke:#A80036;stroke-width:1.0;"/><!--MD5=[7d14f77649ddc14cf165be07c3bac51c]
link t to UC8--><path d="M587.03,49.85 C660.59,61.16 871,93.5 871,93.5 C871,93.5 929.61,166.2 958.84,202.45 " fill="none" id="t-to-UC8" style="stroke:#A80036;stroke-width:1.0;"/><polygon fill="#A80036" points="962.25,206.68,959.7002,197.1669,959.1057,202.7924,953.4801,202.1979,962.25,206.68" style="stroke:#A80036;stroke-width:1.0;"/><!--MD5=[411c7e6d3dd622edfa1df57b6ef8f575]
link k to UC8--><path d="M1016.11,85.61 C1005.36,121.39 989.95,172.7 981.38,201.25 " fill="none" id="k-to-UC8" style="stroke:#A80036;stroke-width:1.0;"/><polygon fill="#A80036" points="979.86,206.31,986.2815,198.8425,981.2994,201.5217,978.6202,196.5395,979.86,206.31" style="stroke:#A80036;stroke-width:1.0;"/><!--MD5=[f003bb4be4b455bde1ea2f29d1725f52]
link k to P3--><path d="M1057.66,74.18 C1068.43,84.41 1078,93.5 1078,93.5 C1078,93.5 1078.97,124.75 1079.955,156.4888 C1079.9627,156.7367 1079.9704,156.9847 1079.9781,157.2327 " fill="none" id="k-to-P3" style="stroke:#A80036;stroke-width:1.0;"/><polygon fill="#A80036" points="1079.9781,157.2327,1083.697,148.113,1079.823,152.2351,1075.7008,148.3611,1079.9781,157.2327" style="stroke:#A80036;stroke-width:1.0;"/><!--MD5=[1aa3f81a3bd80cff712043234baebedb]
link UC1 to UC2--><!--MD5=[594891eb4838d876d29f7ff5a36f2080]
link UC2 to UC3--><!--MD5=[3ab3c4f0aa88f122bda36575115a204e]
link UC5 to UC6--><!--MD5=[f92658300d5adc4fe1f3be64a23e2cf6]
link UC6 to UC7--><!--MD5=[766679404c4c999e4cf4dcfe94687ae6]
link UC9 to UC10--><!--MD5=[2f043608e992351a742343fb5dbd2cbd]
link UC10 to UC11--><!--MD5=[f052de34ae775b1a570282546fec253e]
@startuml

' left to right direction
skinparam Linetype PolyLine

actor "Formand" as f
actor "Træner" as t
actor "Kasserer" as k

rectangle "Use Cases" as UC {
    package "User management" as P1 {
        usecase "Add member" as UC1
        usecase "Change member data" as UC2
        usecase "Remove member" as UC3
    }
    usecase "Manage training disciplines" as UC4
    package "Competition management" as P2 {
        usecase "Manage training group members" as UC5
        usecase "Add competition result" as UC6
        usecase "View top swimmers" as UC7
    }
    usecase "Manage teams" as UC8
    package "Memebership management" as P3 {
        usecase "Change membership fee" as UC9
        usecase "View annual income" as UC10
        usecase "View overdue payments" as UC11
    }
}

f - -> P1
f - -> UC4

t - -> UC4
t - -> P2
t - -> UC8

k - -> UC8
k - -> P3


UC1 -[hidden]d-> UC2
UC2 -[hidden]d-> UC3

UC5 -[hidden]d-> UC6
UC6 -[hidden]d-> UC7

UC9 -[hidden]d-> UC10
UC10 -[hidden]d-> UC11


@enduml

@startuml

skinparam Linetype PolyLine

actor "Formand" as f
actor "Træner" as t
actor "Kasserer" as k

rectangle "Use Cases" as UC {
    package "User management" as P1 {
        usecase "Add member" as UC1
        usecase "Change member data" as UC2
        usecase "Remove member" as UC3
    }
    usecase "Manage training disciplines" as UC4
    package "Competition management" as P2 {
        usecase "Manage training group members" as UC5
        usecase "Add competition result" as UC6
        usecase "View top swimmers" as UC7
    }
    usecase "Manage teams" as UC8
    package "Memebership management" as P3 {
        usecase "Change membership fee" as UC9
        usecase "View annual income" as UC10
        usecase "View overdue payments" as UC11
    }
}

f - -> P1
f - -> UC4

t - -> UC4
t - -> P2
t - -> UC8

k - -> UC8
k - -> P3


UC1 -[hidden]d-> UC2
UC2 -[hidden]d-> UC3

UC5 -[hidden]d-> UC6
UC6 -[hidden]d-> UC7

UC9 -[hidden]d-> UC10
UC10 -[hidden]d-> UC11


@enduml

PlantUML version 1.2021.00(Sun Jan 10 11:25:05 CET 2021)
(GPL source distribution)
Java Runtime: OpenJDK Runtime Environment
JVM: OpenJDK 64-Bit Server VM
Default Encoding: UTF-8
Language: en
Country: US
--></g></svg>